<svg width="68" height="58" viewBox="0 0 68 58" fill="none" xmlns="http://www.w3.org/2000/svg">
<path d="M23 0C25.2091 5.30239e-06 27 1.79086 27 4C27 6.20914 25.2091 7.99999 23 8H17.5V25H41.5V4C41.5 1.79086 43.2909 9.65646e-08 45.5 0H51C60.1127 0 67.5 7.3873 67.5 16.5C67.5 25.6127 60.1127 33 51 33H49.5V54C49.5 56.2091 47.7091 58 45.5 58C43.2909 58 41.5 56.2091 41.5 54V33H17.5V50H23C25.2091 50 27 51.7909 27 54C27 56.2091 25.2091 58 23 58H4C1.79086 58 9.65645e-08 56.2091 0 54C-2.07044e-09 51.7909 1.79086 50 4 50H9.5V8H4C1.79086 8 9.65646e-08 6.20914 0 4C-2.07094e-09 1.79086 1.79086 9.65645e-08 4 0H23ZM49.5 25H51C55.6944 25 59.5 21.1944 59.5 16.5C59.5 11.8056 55.6944 8 51 8H49.5V25Z" fill="#BFAD09"/>
</svg>
