<svg width="36" height="40" viewBox="0 0 36 40" fill="none" xmlns="http://www.w3.org/2000/svg">
<path fill-rule="evenodd" clip-rule="evenodd" d="M22.9814 5H16.2861V22.3623H22.5713V10.2324H27.5713V10.2422C29.6392 10.3436 31.6024 11.2098 33.0732 12.6807C34.6409 14.2483 35.5214 16.3758 35.5215 18.5928C35.5214 20.8096 34.6407 22.9363 33.0732 24.5039C31.6024 25.9748 29.6392 26.841 27.5713 26.9424V39.9102H22.5713V27.3623H5V39.9102H0V10.2324H5V22.3623H11.2861V5H4.58984V0H22.9814V5ZM27.5713 21.9268C28.3112 21.8357 29.0044 21.5004 29.5371 20.9678C30.167 20.3377 30.5215 19.4827 30.5215 18.5918C30.5212 17.7011 30.167 16.8467 29.5371 16.2168C29.0044 15.6842 28.3112 15.3488 27.5713 15.2578V21.9268Z" fill="#10B981"/>
</svg>
