<svg width="140" height="68" viewBox="0 0 140 68" fill="none" xmlns="http://www.w3.org/2000/svg">
<path fill-rule="evenodd" clip-rule="evenodd" d="M49 0C42.3726 1.93277e-07 37 5.37258 37 12V56C37 62.6274 42.3726 68 49 68H12C5.37258 68 1.61069e-07 62.6274 0 56V12C0 5.37258 5.37258 1.77171e-07 12 0H49ZM10.835 20.9697C9.57577 20.9697 8.55469 21.9908 8.55469 23.25C8.55469 24.5092 9.57577 25.5303 10.835 25.5303H16.5547V46.9697H10.835C9.57577 46.9697 8.55469 47.9908 8.55469 49.25C8.55469 50.5092 9.57577 51.5303 10.835 51.5303H26.835C28.0942 51.5303 29.1152 50.5092 29.1152 49.25C29.1152 47.9908 28.0942 46.9697 26.835 46.9697H21.1152V25.5303H26.835C28.0942 25.5303 29.1152 24.5092 29.1152 23.25C29.1152 21.9908 28.0942 20.9697 26.835 20.9697H10.835Z" fill="#1F60EE"/>
<path d="M122.836 25.8623C125.102 25.8624 126.939 27.6997 126.939 29.9658C126.939 32.2318 125.102 34.0692 122.836 34.0693H116.56V25.8623H122.836Z" fill="#1F60EE"/>
<path fill-rule="evenodd" clip-rule="evenodd" d="M128 0C134.627 0 140 5.37258 140 12V56C140 62.6274 134.627 68 128 68H91C97.6274 68 103 62.6274 103 56V12C103 5.37258 97.6274 1.93277e-07 91 0H128ZM114.629 21.999C113.563 21.9992 112.698 22.8653 112.698 23.9316V48.0693C112.699 49.1355 113.563 49.9998 114.629 50C115.695 50 116.56 49.1348 116.56 48.0684V37.9316H122.836C127.235 37.9316 130.801 34.3648 130.802 29.9658C130.802 25.5668 127.235 22.0011 122.836 22.001H114.665C114.653 22.0008 114.641 21.999 114.629 21.999Z" fill="#1F60EE"/>
<path d="M78.96 19.7598C80.1971 19.7598 81.2002 20.7629 81.2002 22V50C81.2002 51.2371 80.1971 52.2402 78.96 52.2402C77.7229 52.2402 76.7197 51.2371 76.7197 50V38.2402H63.2803V50C63.2803 51.2371 62.2771 52.2402 61.04 52.2402C59.8029 52.2402 58.7998 51.2371 58.7998 50V22C58.7998 20.7629 59.8029 19.7598 61.04 19.7598C62.2771 19.7598 63.2803 20.7629 63.2803 22V33.7598H76.7197V22C76.7197 20.7629 77.7229 19.7598 78.96 19.7598Z" fill="#1F60EE"/>
</svg>
